<?xml version="1.0" encoding="utf-8"?>
<!-- Generator: Adobe Illustrator 28.4.1, SVG Export Plug-In . SVG Version: 6.00 Build 0)  -->
<svg version="1.1" id="Слой_1" xmlns="http://www.w3.org/2000/svg" xmlns:xlink="http://www.w3.org/1999/xlink" x="0px" y="0px"
	 viewBox="0 0 243 233" style="enable-background:new 0 0 243 233;" xml:space="preserve">
<style type="text/css">
	.st0{fill:#FFFFFF;}
</style>
<g>
	<path class="st0" d="M38.61,39.97c-3.45,0-6.84,0.05-10.23-0.01c-3.14-0.06-4.82-1.64-4.96-4.77c-0.12-2.7-0.11-5.4,0.01-8.1
		c0.13-2.83,1.76-4.49,4.58-4.54c5.9-0.1,11.81-0.16,17.7,0.03c4.07,0.13,6.83,2.65,8.14,6.84c0.83,2.66,1.71,5.32,2.36,8.03
		c0.48,1.99,1.4,2.57,3.51,2.57c46.62-0.08,93.24-0.11,139.86,0.05c3.32,0.01,7.04,0.96,9.87,2.65c5.69,3.41,7.81,11.06,4.94,17.54
		c-5.16,11.68-10.73,23.18-16.14,34.74c-4.7,10.03-9.4,20.06-14.13,30.08c-3.46,7.34-9.24,10.94-17.39,10.93
		c-26.41-0.04-52.82,0.04-79.23-0.08c-2.99-0.01-4.9,0.84-6.74,3.22c-3.65,4.71-7.7,9.12-12.07,14.21c1.79,0,2.93,0,4.08,0
		c39.32,0,78.63,0,117.95,0c6.1,0,7.33,1.23,7.34,7.34c0.01,10.19,0.01,10.19-10.06,10.19c-39.32,0-78.63,0.01-117.95-0.01
		c-10.22-0.01-16.98-5.32-18.72-14.92c-0.95-5.23,0.89-9.88,4.13-13.92c3-3.75,6.26-7.28,9.25-11.03c0.61-0.76,1-2.19,0.74-3.09
		C56.86,99.38,48.18,70.86,39.5,42.34C39.3,41.67,39.01,41.03,38.61,39.97z"/>
	<path class="st0" d="M163.15,196.99c0.06-9.67,7.94-17.36,17.69-17.24c9.52,0.11,17.26,7.98,17.2,17.49
		c-0.06,9.46-7.95,17.29-17.44,17.31C170.98,214.56,163.09,206.63,163.15,196.99z"/>
	<path class="st0" d="M93.11,197.27c-0.05,9.61-7.75,17.36-17.33,17.25c-9.26-0.11-17.32-6.88-17.44-17.58
		c-0.11-9.58,7.92-17.22,17.46-17.21C85.59,179.74,93.16,187.42,93.11,197.27z"/>
</g>
</svg>
